<svg xmlns="http://www.w3.org/2000/svg" id="Layer_1" data-name="Layer 1" viewBox="0 0 128 128">
  <defs>
    <style>
      .cls-1{fill:none}.cls-1,.cls-3,.cls-4{stroke:#383f51;stroke-linecap:round;stroke-linejoin:round;stroke-width:2px}.cls-3{fill:#fff}.cls-4{fill:#aedefc}
    </style>
  </defs>
  <path d="M125 69l-19-32-19 14M119 90l-10-26-21 6M3 55l26-21 16 14M8 83l17-27 17 6M24 101l8-24 15-4M101 104l-4-22-14-5" class="cls-1"/>
  <path fill="#8b91a8" stroke="#383f51" stroke-linecap="round" stroke-linejoin="round" stroke-width="2" d="M94 64l3 9-5-2v9l-2-2.7a19.7 19.7 0 0 1-5.6 5.2l-.8.5.4 2-5-2 1 4-5-2v4l-2.8-2.2a29.6 29.6 0 0 1-15-2L55 87l-3-6-2 7s-2.8-2.8-3-10.2V77l-.2.6L45 82a26.1 26.1 0 0 1-3-10.7V69l-3 3 1-6-4 4 2-9c-3 0-6 3-6 3 0-5 3.5-8 7.6-8.8A11.5 11.5 0 0 1 42 55l-4-2 4-2-3-3h5l-2-4 3.8.6a19.2 19.2 0 0 1 2.8-2.1A29.6 29.6 0 0 1 65.8 38h0a20.6 20.6 0 0 1 8.2-2c5 0 6 1 6 1s-4.6.8-7 2.3a4.8 4.8 0 0 0-1 .7l4.2.5 4.8.5-1.6 1a31.5 31.5 0 0 1 10 9.4L96 56l-3 1 5 8z"/>
  <circle cx="55.5" cy="62.5" r="9.5" class="cls-3"/>
  <circle cx="60.5" cy="62.5" r="4.5" class="cls-4"/>
  <circle cx="78.5" cy="62.5" r="9.5" class="cls-3"/>
  <circle cx="83.5" cy="62.5" r="4.5" class="cls-4"/>
  <path d="M70 78a4 4 0 0 0-2.6-1 3.2 3.2 0 0 0-2.4 1" class="cls-1"/>
  <path fill="none" d="M0 0h128v128H0z"/>
</svg>
